<?xml version="1.0" standalone="no"?>
<!DOCTYPE svg PUBLIC "-//W3C//DTD SVG 20010904//EN"
 "http://www.w3.org/TR/2001/REC-SVG-20010904/DTD/svg10.dtd">
<svg version="1.0" xmlns="http://www.w3.org/2000/svg"
 width="333.000000pt" height="97.000000pt" viewBox="0 0 333.000000 97.000000"
 preserveAspectRatio="xMidYMid meet">

<g transform="translate(0.000000,97.000000) scale(0.100000,-0.100000)"
fill="#000000" stroke="none">
<path d="M70 485 l0 -415 381 0 c209 0 379 3 377 8 -2 4 -18 36 -36 71 -41 78
-70 189 -78 295 -8 114 21 251 79 368 l44 88 -383 0 -384 0 0 -415z m360 224
c0 -15 -7 -19 -37 -19 -41 0 -86 19 -48 20 11 0 31 7 45 14 29 17 40 12 40
-15z m145 -84 c13 -27 21 -66 23 -122 l4 -83 -86 0 c-70 0 -86 -3 -86 -15 0
-12 17 -15 95 -15 113 0 118 -7 50 -78 l-44 -47 -16 23 c-21 29 -53 28 -65 -2
-31 -83 -148 -70 -237 27 -67 73 -63 77 72 77 96 0 115 3 115 15 0 12 -18 15
-103 15 l-104 0 30 59 c20 40 31 81 34 126 l6 66 146 -3 146 -3 20 -40z"/>
<path d="M286 588 c-4 -29 -16 -73 -27 -97 -10 -24 -19 -44 -19 -45 0 0 75 0
167 1 l168 2 0 54 c0 31 -8 71 -19 95 l-19 42 -122 0 -122 0 -7 -52z m148 -14
c-6 -23 -4 -25 15 -19 17 5 21 2 21 -15 0 -17 -4 -20 -21 -15 -19 6 -21 4 -16
-14 4 -17 1 -21 -18 -21 -19 0 -22 4 -18 21 5 18 3 20 -16 14 -18 -5 -21 -2
-21 20 0 23 2 25 21 14 20 -10 21 -9 17 15 -4 22 -2 26 19 26 20 0 23 -3 17
-26z"/>
<path d="M219 342 c22 -41 133 -98 165 -86 8 3 28 23 45 45 35 42 63 49 93 22
17 -15 20 -15 38 5 11 12 20 24 20 27 0 3 -83 5 -185 5 -177 0 -185 -1 -176
-18z"/>
<path d="M909 858 c-100 -136 -144 -357 -104 -525 17 -74 65 -183 101 -230
l25 -33 1165 0 1164 0 0 415 0 415 -1160 0 -1160 0 -31 -42z m903 -50 c9 -7
18 -32 22 -54 7 -47 -8 -68 -46 -62 -20 3 -23 10 -26 52 -5 74 11 94 50 64z
m125 -53 c25 -64 23 -77 -5 -52 -23 21 -51 22 -58 2 -7 -17 -24 -21 -24 -5 0
25 43 121 53 117 6 -2 22 -30 34 -62z m80 33 l17 -33 6 30 c9 49 25 29 25 -32
0 -69 -16 -79 -44 -26 l-20 38 -1 -38 c0 -26 -4 -37 -12 -35 -18 6 -23 109 -6
119 18 12 15 13 35 -23z m159 22 c34 -13 23 -25 -24 -25 -34 0 -37 -2 -37 -30
0 -28 2 -30 38 -29 43 1 52 -22 13 -32 -37 -9 -59 -1 -75 27 -18 33 -8 77 22
89 29 12 31 12 63 0z m134 -10 c39 -39 15 -110 -38 -110 -36 0 -62 27 -62 66
0 56 61 83 100 44z m-768 -184 c41 -27 72 -98 65 -153 -6 -52 -29 -88 -78
-121 -28 -20 -44 -23 -92 -20 -46 4 -63 10 -88 34 -60 56 -75 133 -40 203 42
82 153 109 233 57z m-343 10 c15 -8 33 -22 41 -31 11 -14 11 -19 -3 -33 -16
-15 -19 -15 -48 2 -58 34 -135 20 -158 -31 -34 -75 11 -153 89 -153 26 0 53 8
70 20 27 19 28 19 45 0 15 -16 16 -22 5 -35 -24 -29 -68 -45 -122 -45 -99 0
-158 60 -158 161 0 67 27 115 80 141 42 22 121 23 159 4z m523 -113 l3 -128
43 -3 c40 -3 43 -5 40 -30 -3 -26 -4 -27 -73 -27 l-70 0 -3 145 c-1 79 0 150
2 157 3 7 17 13 30 13 l25 0 3 -127z m185 17 c2 -58 5 -115 8 -126 6 -28 38
-36 64 -17 19 13 21 24 21 134 l0 119 30 0 30 0 0 -115 c0 -167 -20 -205 -110
-205 -33 0 -48 6 -71 29 l-29 29 0 132 0 131 28 -3 27 -3 2 -105z m307 68 c8
-24 22 -68 32 -98 9 -30 19 -59 22 -64 2 -4 20 40 39 98 33 103 35 106 64 106
16 0 29 -3 29 -7 0 -3 11 -71 25 -150 15 -79 23 -148 20 -153 -8 -13 -42 -13
-50 -1 -3 5 -10 46 -17 90 -6 45 -14 81 -17 81 -4 0 -20 -39 -36 -87 -27 -79
-33 -88 -55 -88 -23 0 -28 9 -57 94 l-31 93 -11 -58 c-24 -121 -26 -129 -45
-132 -10 -2 -22 0 -26 5 -9 8 32 283 45 303 3 5 17 10 30 10 18 0 26 -9 39
-42z m398 32 c21 -6 42 -19 48 -30 14 -25 13 -73 -2 -88 -9 -9 -6 -17 12 -37
28 -29 30 -73 7 -109 -20 -29 -80 -49 -135 -44 l-37 4 -3 157 -3 157 38 0 c21
0 55 -5 75 -10z m188 -151 l0 -160 -27 3 -28 3 -3 158 -3 157 31 0 30 0 0
-161z m227 144 c3 -10 26 -69 50 -131 24 -63 46 -127 50 -143 5 -26 3 -29 -21
-29 -20 0 -29 8 -40 35 -15 35 -16 35 -76 35 -59 0 -61 -1 -72 -30 -6 -18 -19
-32 -33 -36 -39 -10 -47 3 -29 44 13 31 51 131 95 250 11 28 66 32 76 5z"/>
<path d="M1790 780 c0 -5 5 -10 10 -10 6 0 10 5 10 10 0 6 -4 10 -10 10 -5 0
-10 -4 -10 -10z"/>
<path d="M1790 730 c0 -5 7 -10 15 -10 8 0 15 5 15 10 0 6 -7 10 -15 10 -8 0
-15 -4 -15 -10z"/>
<path d="M1895 760 c-8 -13 -1 -24 14 -19 6 3 7 10 2 18 -6 10 -10 10 -16 1z"/>
<path d="M2235 771 c-8 -25 3 -48 25 -54 31 -8 44 9 41 56 -2 25 -58 24 -66
-2z"/>
<path d="M1424 583 c-41 -8 -69 -50 -69 -103 0 -75 52 -117 123 -98 36 10 72
57 72 96 0 39 -29 83 -65 98 -19 8 -36 13 -37 13 -2 -1 -13 -4 -24 -6z"/>
<path d="M2560 550 c0 -23 5 -30 19 -30 30 0 45 25 26 44 -26 26 -45 20 -45
-14z"/>
<path d="M2562 423 c3 -36 5 -38 33 -35 27 3 44 16 45 34 0 15 -33 38 -56 38
-23 0 -25 -3 -22 -37z"/>
<path d="M2968 495 l-17 -45 39 0 39 0 -17 45 c-9 25 -19 45 -22 45 -3 0 -13
-20 -22 -45z"/>
</g>
</svg>
